<?xml version="1.0" standalone="no"?>
<!DOCTYPE svg PUBLIC "-//W3C//DTD SVG 20010904//EN"
 "http://www.w3.org/TR/2001/REC-SVG-20010904/DTD/svg10.dtd">
<svg version="1.0" xmlns="http://www.w3.org/2000/svg"
 width="1024.000000pt" height="1024.000000pt" viewBox="0 0 1024.000000 1024.000000"
 preserveAspectRatio="xMidYMid meet">
<metadata>
Created by potrace 1.16, written by Peter Selinger 2001-2019
</metadata>
<defs>
  <linearGradient id="golden" x1="0%" y1="0%" x2="100%" y2="100%">
    <stop offset="0%" style="stop-color:#FFD700;stop-opacity:1" />
    <stop offset="100%" style="stop-color:#FFA500;stop-opacity:1" />
  </linearGradient>
</defs>
<g transform="translate(0.000000,1024.000000) scale(0.100000,-0.100000)"
fill="url(#golden)" stroke="none">
<path d="M0 5120 l0 -5120 5120 0 5120 0 0 5120 0 5120 -5120 0 -5120 0 0
-5120z m8180 4265 c52 -14 127 -42 165 -62 109 -54 243 -162 230 -183 -4 -6
-1 -9 6 -8 18 4 104 -106 148 -191 136 -264 142 -547 16 -810 -48 -99 -84
-156 -93 -147 -3 3 3 15 13 26 10 11 13 20 8 20 -12 0 -26 -27 -27 -51 -1 -23
-83 -112 -96 -104 -6 4 -9 1 -8 -6 5 -20 -110 -106 -196 -148 -199 -96 -388
-120 -596 -75 -105 23 -257 93 -331 153 l-24 19 -65 -63 c-36 -35 -325 -324
-644 -643 l-579 -580 37 -60 c97 -160 144 -314 153 -507 10 -208 -19 -350
-102 -516 l-44 -86 67 -50 c261 -197 1147 -853 1170 -867 10 -6 29 6 60 37
110 107 229 158 382 164 181 9 318 -45 445 -172 120 -119 179 -260 177 -420
-3 -262 -163 -481 -409 -563 -103 -33 -263 -35 -363 -3 -144 46 -290 169 -349
295 -66 141 -78 316 -31 455 11 33 20 63 20 65 0 6 -106 85 -585 436 -198 145
-409 300 -470 345 -60 44 -131 96 -157 114 l-47 33 -57 -61 c-156 -169 -385
-292 -617 -332 l-68 -11 6 -57 c6 -62 20 -288 35 -571 6 -102 17 -286 25 -410
8 -124 16 -252 18 -285 l2 -60 65 -6 c291 -29 535 -239 609 -523 88 -337 -116
-709 -450 -822 -111 -38 -193 -47 -290 -34 -240 33 -432 169 -539 382 -55 111
-73 203 -68 346 4 101 9 128 37 198 80 205 228 351 418 415 l63 21 0 41 c0 23
-7 132 -15 242 -7 110 -21 324 -30 475 -10 151 -22 358 -29 460 l-11 185 -75
7 c-210 21 -434 116 -568 242 l-34 31 -664 -669 c-585 -590 -662 -672 -651
-687 150 -206 200 -345 200 -559 1 -140 -23 -242 -88 -375 -81 -166 -191 -284
-354 -380 -299 -177 -667 -158 -956 50 -82 59 -159 140 -150 156 5 7 4 10 -3
6 -11 -8 -68 65 -101 130 -124 247 -132 545 -19 791 174 380 600 586 1001 483
92 -24 230 -87 300 -137 l50 -36 349 348 c192 192 489 492 660 667 l310 317
-51 75 c-205 297 -254 649 -136 977 30 84 92 207 139 277 l36 53 -42 47 c-23
25 -277 284 -564 576 l-522 529 -55 -27 c-99 -48 -201 -70 -297 -64 -271 18
-493 189 -573 442 -17 53 -22 94 -22 170 0 119 13 171 72 287 103 203 311 328
542 328 120 -1 164 -11 271 -62 67 -32 101 -56 160 -117 220 -223 246 -553 62
-804 l-35 -48 29 -32 c16 -18 269 -273 562 -568 l534 -537 77 56 c100 73 256
146 378 179 86 24 117 27 263 27 122 1 185 -4 242 -16 179 -40 356 -128 495
-247 l75 -63 632 638 632 638 -49 65 c-60 78 -128 219 -153 316 -15 54 -19
104 -18 220 1 133 4 160 28 240 85 281 291 499 571 603 157 58 357 65 525 17z"/>
<path d="M8609 9087 c6 -8 7 -18 3 -22 -4 -5 -1 -4 7 0 11 6 13 4 8 -9 -4 -9
-3 -15 2 -11 5 3 19 -8 30 -24 25 -34 27 -49 6 -31 -9 8 -15 9 -15 2 0 -6 5
-14 10 -17 6 -4 8 -11 5 -16 -4 -5 -1 -9 4 -9 6 0 10 -3 10 -7 -4 -22 3 -32
16 -27 10 4 15 0 15 -15 0 -12 -4 -21 -9 -21 -15 0 -22 -33 -9 -42 10 -7 9 -9
-2 -5 -8 2 -15 11 -15 20 0 8 -3 18 -6 22 -4 3 -5 -5 -4 -17 1 -13 3 -31 4
-42 1 -14 4 -16 14 -7 10 8 14 7 14 -3 0 -12 -43 -41 -57 -39 -3 1 -11 -6 -19
-14 -11 -12 -10 -14 5 -11 11 2 25 10 31 18 11 13 14 13 23 0 5 -8 8 -21 5
-29 -4 -9 1 -12 15 -8 13 3 20 0 20 -9 0 -17 -30 -8 -47 14 -12 14 -13 14 -13
0 0 -9 13 -22 30 -30 28 -12 53 -42 27 -33 -18 7 -37 -9 -42 -34 -3 -17 0 -21
10 -17 11 4 15 -2 15 -19 0 -14 5 -25 10 -25 7 0 7 -7 0 -21 -8 -15 -8 -29 -1
-52 9 -28 9 -30 -3 -14 -18 23 -29 22 -21 -3 3 -11 2 -20 -3 -20 -11 0 -10
-25 1 -36 4 -4 7 -18 7 -32 0 -17 -4 -22 -14 -19 -9 4 -16 -3 -20 -19 -4 -14
-11 -22 -16 -19 -6 3 -10 1 -10 -4 0 -19 28 -12 35 9 9 29 26 25 21 -5 -3 -14
0 -25 5 -25 5 0 9 7 9 15 0 9 6 12 16 8 13 -5 11 -9 -10 -22 -14 -9 -24 -21
-21 -28 2 -7 0 -13 -5 -13 -6 0 -10 -6 -10 -14 0 -17 -27 -29 -33 -13 -2 6 -6
4 -10 -5 -4 -13 -1 -16 16 -12 12 3 27 6 34 6 6 1 9 7 6 15 -3 7 2 13 12 13 9
0 14 -4 10 -9 -3 -6 3 -15 12 -21 13 -8 14 -10 3 -9 -30 3 -41 -1 -34 -12 4
-7 0 -9 -14 -5 -15 5 -24 1 -31 -12 -7 -14 -7 -19 4 -19 7 0 11 6 8 14 -4 9 0
11 12 7 12 -5 15 -15 12 -40 -3 -19 -1 -31 4 -28 12 7 11 -2 -3 -29 -26 -50
-26 -53 -7 -54 15 -1 30 20 64 90 52 109 72 178 86 310 17 150 -9 285 -91 472
-17 39 -23 46 -31 35 -8 -12 -9 -10 -4 6 4 15 -7 39 -40 83 -25 33 -48 61 -51
61 -4 0 -1 -6 5 -13z"/>
<path d="M8349 4355 c14 -30 25 -59 26 -71 0 -6 7 -20 15 -30 12 -14 12 -16 1
-9 -11 6 -13 4 -8 -8 4 -10 0 -20 -9 -25 -14 -8 -14 -11 3 -27 10 -10 18 -23
18 -28 0 -6 9 -13 20 -18 18 -7 18 -8 2 -8 -10 -1 -15 -5 -12 -11 3 -5 3 -10
-2 -10 -12 0 -13 -70 -2 -92 8 -14 6 -18 -8 -19 -15 0 -14 -2 3 -9 30 -12 43
-34 15 -25 -30 9 -57 -2 -57 -24 0 -11 4 -17 8 -15 4 3 8 12 8 20 0 18 24 18
39 1 11 -14 5 -27 -13 -27 -6 0 -4 5 4 11 12 9 12 10 1 7 -22 -6 -37 -58 -20
-70 11 -7 9 -9 -7 -5 -12 2 -21 -1 -21 -8 0 -8 9 -10 26 -6 35 10 53 62 59
177 6 125 -29 268 -79 326 -17 19 -18 20 -10 3z"/>
</g>
</svg>
